<?xml version="1.0" encoding="iso-8859-1"?>
<!-- Generator: Adobe Illustrator 16.0.0, SVG Export Plug-In . SVG Version: 6.00 Build 0)  -->
<!DOCTYPE svg PUBLIC "-//W3C//DTD SVG 1.1//EN" "http://www.w3.org/Graphics/SVG/1.1/DTD/svg11.dtd">
<svg version="1.1" id="Capa_1" xmlns="http://www.w3.org/2000/svg" xmlns:xlink="http://www.w3.org/1999/xlink" x="0px" y="0px"
	 width="93.456px" height="93.456px" viewBox="0 0 93.456 93.456" style="enable-background:new 0 0 93.456 93.456;"
	 xml:space="preserve">
<g>
	<g>
		<path d="M46.728,0C20.962,0,0,20.962,0,46.729c0,25.764,20.962,46.727,46.728,46.727s46.728-20.963,46.728-46.727
			C93.455,20.961,72.493,0,46.728,0z M87.408,55.983c-4.58-5.717-6.312-13.718-7.465-14.819c-1.592-1.524-4.293-6.234-3.67-6.165
			c0.262,0.029,0.586-0.138,0.871-0.341c0.434-0.306,0.164-0.764-0.455-1.091c-1.42-0.748-3.713-2.62-4.504-7.088
			c-0.965-5.446-10.199-9.823-13.51-11.23c-0.646-0.274-0.791-0.886-0.591-1.557c0.522-1.752,0.907-4.97,0.246-4.462
			c-0.899,0.693-0.276,1.593-1.662,2.286c-0.706,0.353-1.466,0.94-2.042,1.431c-0.531,0.454-1.305,0.762-1.766,0.796
			c-0.459,0.035-1.12-0.036-1.512-0.322c-0.391-0.287-0.677-0.101-0.639,0.416c0.038,0.516-0.355,1.31-0.855,1.8
			c-1.289,1.263-1.88,2.138-2.125,2.736c-0.266,0.648-0.293,1.613-0.727,2.163c-3.397,4.313-7.428,10.845-8.069,12.385
			c-0.216,0.52-0.229,0.917-0.146,1.219c0.185,0.665,0.688,1.46,0.948,2.11c0.442,1.105,1.862,0.933,2.73,1.312
			c1.109,0.485,5.334,0.693,4.503-0.831c-0.477-0.874,0.3-1.68,1.049-2.208c0.572-0.404,1.562-0.972,2.22-1.216
			c1.75-0.651,4.006-0.642,5.806-2.048c2.217-1.732,0.971,7.758,0.691,9.005c-0.275,1.247-2.146,5.334-4.57,8.243
			c-1.27,1.523-1.533,2.78-1.495,3.633c0.03,0.699-0.246,1.299-0.918,1.497c-0.698,0.205-1.759,0.56-3.337,1.175
			c-3.74,1.455-10.806,0.762-14.962,3.463c-4.156,2.701-8.035,1.455-9.905,3.67c-1.87,2.218-4.156,0.623-4.642,2.158
			c-0.484,1.535-3.047,1.721-3.532,2.76s4.779,2.701,5.819,2.771c0.804,0.055,2.024-0.641,2.694-1.857
			c0.338-0.612,0.469-1.875,1.072-2.23c0.227-0.133,0.483-0.189,0.737-0.204c0.7-0.036,1.562-0.278,2.113-0.708
			c1.524-1.188,4.374-2.303,6.474-3.242c2.632-1.178,2.562,0.832,4.85-0.068c1.395-0.551,3.151-0.377,4.308-0.159
			c0.688,0.13,0.789,0.665,0.422,1.262c-0.964,1.572-1.789,4.431-0.228,5.616c2.01,1.523,3.671,10.391,5.681,10.875
			c2.008,0.484,3.324,2.285,4.501,2.908c0.689,0.365,1.9,1.062,2.785,1.578c0.605,0.352,1.311,0.121,1.342-0.578
			c0.033-0.723,0.021-1.871-0.108-3.7c-0.347-4.918-5.403-1.108-4.778-2.078c0.623-0.97-0.901-1.179-3.396-4.71
			c-2.494-3.533-3.325-7.966,1.04-6.719c2.951,0.844,5.936,0.546,7.559,0.265c0.688-0.12,1.646,0.129,2.154,0.61
			c6.509,6.152,11.551,9.675,15.398,11.938c-7.295,6.243-16.756,10.026-27.089,10.026c-23.009,0-41.728-18.72-41.728-41.727
			c0-23.009,18.719-41.728,41.728-41.728S88.453,23.72,88.453,46.729C88.455,49.909,88.085,53.003,87.408,55.983z"/>
	</g>
</g>
<g>
</g>
<g>
</g>
<g>
</g>
<g>
</g>
<g>
</g>
<g>
</g>
<g>
</g>
<g>
</g>
<g>
</g>
<g>
</g>
<g>
</g>
<g>
</g>
<g>
</g>
<g>
</g>
<g>
</g>
</svg>
